# xmcd
#
# Track frame offsets:
#	150
#	10737
#	22420
#	33371
#	43232
#	55167
#	65073
#	77273
#	88326
#	99415
#	112251
#	125646
#	136951
#	147165
#	158805
#	167835
#	179057
#	191116
#	199579
#
# Disc length: 2782 seconds
#
# Revision: 0
# Processed by: cddbd v1.5.2PL0 Copyright (c) Steve Scherf et al.
# Submitted via: dBpowerAMP V4.0
#
DISCID=180adc13
DTITLE=Buck Owens - Streets of Bakersfield
DYEAR=1900
DGENRE=Country
TTITLE0=Act Naturally
TTITLE1=Streets of Bakersfield
TTITLE2=Together Again
TTITLE3=Before You Go
TTITLE4=Foolin' Around
TTITLE5=I've Got a Tiger by the Tail
TTITLE6=Under Your Spell Again
TTITLE7=Excuse Me (I Think I've Got a Heartache)
TTITLE8=My Heart Skips a Beat
TTITLE9=Close Up the Honky Tonks
TTITLE10=I Don't Hear You
TTITLE11=Save the Last Dance for Me
TTITLE12=Over and Over Again
TTITLE13=Truck Drivin' Man
TTITLE14=Ain't It Amazin', Gracie
TTITLE15=Getting Used to Losing You
TTITLE16=Storm of Love
TTITLE17=Hello Trouble
TTITLE18=Love's Gonna Live Here
EXTD=
EXTT0=
EXTT1=
EXTT2=
EXTT3=
EXTT4=
EXTT5=
EXTT6=
EXTT7=
EXTT8=
EXTT9=
EXTT10=
EXTT11=
EXTT12=
EXTT13=
EXTT14=
EXTT15=
EXTT16=
EXTT17=
EXTT18=
PLAYORDER=
